name C:\Users\u0101727\Documents\MyRepositories\paper-ad\predictivesimulations_2d/Results/PredSim_2D/IK_c16.mot
datacolumns 11
datarows 43
range 0.26600000 0.35000000
endheader
time	pelvis_tilt	pelvis_tx	pelvis_ty	hip_flexion_l	hip_flexion_r	knee_angle_l	knee_angle_r	ankle_angle_l	ankle_angle_r	lumbar_extension	
          0.26600000	        -22.19484682	          0.35744122	          0.86318074	         21.32185946	         21.31397361	        -51.90696341	        -51.88400008	         -5.43082110	         -5.37759843	         -8.04388872	
          0.26800000	        -22.18506016	          0.35975983	          0.86336820	         21.39413243	         21.38441441	        -51.93503172	        -51.91212223	         -5.40291250	         -5.34613721	         -8.13708496	
          0.27000000	        -22.18186276	          0.36207071	          0.86353133	         21.47513688	         21.46353308	        -51.96421567	        -51.94133038	         -5.37516983	         -5.31571384	         -8.22329478	
          0.27200000	        -22.18534276	          0.36437893	          0.86366796	         21.56372380	         21.55017850	        -51.99415101	        -51.97117812	         -5.34588095	         -5.28593667	         -8.30120653	
          0.27400000	        -22.19533122	          0.36668948	          0.86377623	         21.65851403	         21.64297517	        -52.02447139	        -52.00126743	         -5.31402296	         -5.25625695	         -8.36987353	
          0.27600000	        -22.21139133	          0.36900718	          0.86385455	         21.75796114	         21.74035446	        -52.05491412	        -52.03131868	         -5.28056111	         -5.22688683	         -8.42873215	
          0.27800000	        -22.23200580	          0.37133741	          0.86390289	         21.85932397	         21.83956470	        -52.08516679	        -52.06104293	         -5.24846904	         -5.19936567	         -8.47852714	
          0.28000000	        -22.25519983	          0.37368580	          0.86392205	         21.95924113	         21.93725218	        -52.11459569	        -52.08985252	         -5.22029344	         -5.17529443	         -8.52057122	
          0.28200000	        -22.27977989	          0.37605733	          0.86391213	         22.05517207	         22.03090512	        -52.14235124	        -52.11692555	         -5.19583497	         -5.15495400	         -8.55531326	
          0.28400000	        -22.30525372	          0.37845631	          0.86387250	         22.14538090	         22.11882637	        -52.16752233	        -52.14139757	         -5.17292194	         -5.13731529	         -8.58243649	
          0.28600000	        -22.33155638	          0.38088647	          0.86380198	         22.22872764	         22.19988734	        -52.18939316	        -52.16253870	         -5.14850717	         -5.12025460	         -8.60118242	
          0.28800000	        -22.35922547	          0.38335064	          0.86369839	         22.30503931	         22.27387809	        -52.20779794	        -52.18004710	         -5.12012326	         -5.10165456	         -8.61016678	
          0.29000000	        -22.38880666	          0.38585134	          0.86355938	         22.37427415	         22.34078936	        -52.22268315	        -52.19389343	         -5.08744628	         -5.08066288	         -8.60805453	
          0.29200000	        -22.42001059	          0.38839158	          0.86338383	         22.43541043	         22.39972656	        -52.23375711	        -52.20398499	         -5.05313857	         -5.05893285	         -8.59451709	
          0.29400000	        -22.45231968	          0.39097432	          0.86317128	         22.48724437	         22.44959219	        -52.24074614	        -52.21020519	         -5.02146029	         -5.03976976	         -8.56953394	
          0.29600000	        -22.48526921	          0.39360219	          0.86292238	         22.52875446	         22.48939395	        -52.24349453	        -52.21247583	         -4.99625214	         -5.02579454	         -8.53309837	
          0.29800000	        -22.51850922	          0.39627711	          0.86264049	         22.55919071	         22.51835708	        -52.24200961	        -52.21083214	         -4.97872937	         -5.01679980	         -8.48520889	
          0.30000000	        -22.55188057	          0.39899996	          0.86234274	         22.57817873	         22.53610697	        -52.23640597	        -52.20539614	         -4.96654784	         -5.00986563	         -8.42586582	
          0.30200000	        -22.58553255	          0.40176988	          0.86200183	         22.58604169	         22.54299323	        -52.22689363	        -52.19638705	         -4.95659200	         -5.00214856	         -8.35506972	
          0.30400000	        -22.61978549	          0.40458413	          0.86162654	         22.58377787	         22.54000591	        -52.21374556	        -52.18403414	         -4.94853688	         -4.99388408	         -8.27303993	
          0.30600000	        -22.65455372	          0.40743893	          0.86122903	         22.57224947	         22.52801598	        -52.19716973	        -52.16848215	         -4.94529582	         -4.98937756	         -8.18078720	
          0.30800000	        -22.68859956	          0.41033020	          0.86082189	         22.55121166	         22.50681842	        -52.17737347	        -52.14990468	         -4.94980814	         -4.99340554	         -8.08093257	
          0.31000000	        -22.71947855	          0.41325388	          0.86041919	         22.51915064	         22.47491606	        -52.15460800	        -52.12853668	         -4.96232446	         -5.00673708	         -7.97770873	
          0.31200000	        -22.74699504	          0.41620440	          0.86003364	         22.47720601	         22.43345303	        -52.12940233	        -52.10494340	         -4.98162230	         -5.02763224	         -7.87268875	
          0.31400000	        -22.77279434	          0.41917480	          0.85967498	         22.42876742	         22.38582753	        -52.10256531	        -52.07999145	         -5.00696034	         -5.05487454	         -7.76529365	
          0.31600000	        -22.79671954	          0.42215925	          0.85935409	         22.37511525	         22.33331007	        -52.07474163	        -52.05434093	         -5.03787277	         -5.08719615	         -7.65709495	
          0.31800000	        -22.81642237	          0.42515409	          0.85908337	         22.31469806	         22.27432055	        -52.04610277	        -52.02817563	         -5.07316107	         -5.12208195	         -7.55210624	
          0.32000000	        -22.82958939	          0.42815590	          0.85887314	         22.24595638	         22.20726670	        -52.01692294	        -52.00176422	         -5.11060796	         -5.15645848	         -7.45422982	
          0.32200000	        -22.83552841	          0.43116011	          0.85872813	         22.16930669	         22.13255140	        -51.98778522	        -51.97563705	         -5.14805275	         -5.18895876	         -7.36545370	
          0.32400000	        -22.83437378	          0.43416176	          0.85864827	         22.08609539	         22.05150242	        -51.95919515	        -51.95018980	         -5.18458007	         -5.22051857	         -7.28675662	
          0.32600000	        -22.82661356	          0.43715588	          0.85862950	         21.99803284	         21.96579413	        -51.93149709	        -51.92565752	         -5.22138787	         -5.25379669	         -7.21865310	
          0.32800000	        -22.81265079	          0.44013786	          0.85866582	         21.90663818	         21.87689016	        -51.90484142	        -51.90212268	         -5.26090383	         -5.29142902	         -7.16169364	
          0.33000000	        -22.79308346	          0.44310319	          0.85875089	         21.81359646	         21.78640959	        -51.87939821	        -51.87971475	         -5.30475618	         -5.33447591	         -7.11614528	
          0.33200000	        -22.76866019	          0.44604747	          0.85887889	         21.72069624	         21.69607504	        -51.85539551	        -51.85861684	         -5.35279559	         -5.38226047	         -7.08204344	
          0.33400000	        -22.74010727	          0.44896656	          0.85904438	         21.62961179	         21.60751398	        -51.83310678	        -51.83905486	         -5.40278508	         -5.43255356	         -7.05939280	
          0.33600000	        -22.70810912	          0.45185657	          0.85924210	         21.54189743	         21.52225106	        -51.81284915	        -51.82131817	         -5.45104697	         -5.48170504	         -7.04819470	
          0.33800000	        -22.67331157	          0.45471380	          0.85946678	         21.45901344	         21.44172366	        -51.79495335	        -51.80572752	         -5.49358488	         -5.52544394	         -7.04844946	
          0.34000000	        -22.63632460	          0.45753478	          0.85971333	         21.38233541	         21.36729735	        -51.77974764	        -51.79259747	         -5.52641634	         -5.55978543	         -7.06015738	
          0.34200000	        -22.59773070	          0.46031619	          0.85997713	         21.31321382	         21.30031513	        -51.76751673	        -51.78221297	         -5.54786434	         -5.58273975	         -7.08331964	
          0.34400000	        -22.55805600	          0.46305501	          0.86025369	         21.25293637	         21.24205507	        -51.75845758	        -51.77478862	         -5.56031566	         -5.59598691	         -7.11793680	
          0.34600000	        -22.51768738	          0.46574903	          0.86053878	         21.20247088	         21.19348939	        -51.75268130	        -51.77043500	         -5.56705355	         -5.60284299	         -7.16400838	
          0.34800000	        -22.47717303	          0.46839722	          0.86082826	         21.16263195	         21.15544862	        -51.75023195	        -51.76915406	         -5.56934082	         -5.60546328	         -7.22104734	
          0.35000000	        -22.43708726	          0.47099962	          0.86111851	         21.13401885	         21.12854948	        -51.75121281	        -51.77111133	         -5.56681645	         -5.60396752	         -7.28827028	
